<svg xmlns="http://www.w3.org/2000/svg" width="64" height="64" viewBox="0 0 64 64">
    <defs>
        <filter id="prefix__a" width="150%" height="147.1%" x="-26%" y="-23.5%" filterUnits="objectBoundingBox">
            <feOffset dy="2" in="SourceAlpha" result="shadowOffsetOuter1"/>
            <feGaussianBlur in="shadowOffsetOuter1" result="shadowBlurOuter1" stdDeviation="2"/>
            <feColorMatrix in="shadowBlurOuter1" result="shadowMatrixOuter1" values="0 0 0 0 0 0 0 0 0 0 0 0 0 0 0 0 0 0 0.1 0"/>
            <feMerge>
                <feMergeNode in="shadowMatrixOuter1"/>
                <feMergeNode in="SourceGraphic"/>
            </feMerge>
        </filter>
    </defs>
    <g fill="none" fill-rule="evenodd">
        <g>
            <path fill="#FF9000" stroke="#FFF" d="M26.633 18.034L24.767 4.746 33.633 13.288 45.3 0 41.1 15.661 49.967 11.39 47.167 20.407 63.5 19.932 48.717 26.948 57.486 34.057 45.732 38.508 52.3 56 38.3 44.136 36.9 54.576 30.833 43.186 21.5 56 21.5 41.288 12.633 47.932 14.967 35.593 0.5 35.119 15.433 28.949 10.767 25.153 20.567 22.305 19.167 18.034z" transform="translate(-12 -6) rotate(-138 40.629 33.293)"/>
            <path fill="#FAE800" d="M29.946 22.253L29.758 13.962 33.215 17.907 39.548 10.338 36.571 20.606 44.458 17.423 42.451 23.678 51.345 22.795 43.838 27.286 51.228 33.169 42.029 36.315 46.266 47.669 36.234 39.439 35.231 46.681 30.884 38.78 24.197 47.669 23.973 35.957 16.206 42.397 18.301 33.45 11.169 33.289 21.23 29.574 17.918 26.344 24.94 24.369 24.544 21.437z" transform="translate(-12 -6) rotate(-138 40.629 33.293)"/>
        </g>
        <g filter="url(#prefix__a)" transform="translate(-12 -6) rotate(21 -3.423 82.039)">
            <g>
                <path d="M0 0L37.416 0 37.416 38.245 0 38.245z" transform="rotate(-20 38.27 5.661)"/>
                <path fill="#B44DFF" fill-rule="nonzero" d="M23.708 13.37c.525-.697 1.504-.828 2.186-.291.683.536.81 1.537.285 2.235l-7.795 10.358c-.539.717-1.553.831-2.233.252l-4.677-3.984c-.662-.563-.751-1.568-.2-2.244.551-.676 1.534-.767 2.196-.204l3.432 2.923 6.806-9.045z" transform="rotate(-20 38.27 5.661)"/>
            </g>
        </g>
    </g>
</svg>
