<svg xmlns="http://www.w3.org/2000/svg" width="44" height="44" viewBox="0 0 44 44">
    <g fill="none" fill-rule="evenodd" opacity="1">
        <path fill="#FFF" d="M40.87 29.87l2.593 2.593L33 42.926l-6.796-6.797 2.592-2.592L33 37.741l7.87-7.87zM24.593 0L33 8.408v17.424c-5.2.874-9.167 5.386-9.167 10.835 0 1.288.233 2.519.64 3.666H3.667C1.645 40.333 0 38.69 0 36.667v-33C0 1.647 1.645 0 3.667 0h20.925zm-4.425 29.333H5.5V33h14.667v-3.667zm0-7.333H5.5v3.667h14.667V22zm0-7.333H5.5v3.666h14.667v-3.666zM22 1.833V11h9.167L22 1.833z"/>
    </g>
</svg>
