<svg xmlns="http://www.w3.org/2000/svg" width="182" height="180" viewBox="0 0 182 180">
    <defs>
        <filter id="prefix__a" width="176.5%" height="165%" x="-38.2%" y="-32.5%" filterUnits="objectBoundingBox">
            <feOffset dy="2" in="SourceAlpha" result="shadowOffsetOuter1"/>
            <feGaussianBlur in="shadowOffsetOuter1" result="shadowBlurOuter1" stdDeviation="2"/>
            <feColorMatrix in="shadowBlurOuter1" result="shadowMatrixOuter1" values="0 0 0 0 0 0 0 0 0 0 0 0 0 0 0 0 0 0 0.5 0"/>
            <feMerge>
                <feMergeNode in="shadowMatrixOuter1"/>
                <feMergeNode in="SourceGraphic"/>
            </feMerge>
        </filter>
        <filter id="prefix__b" width="192.3%" height="174.3%" x="-46.2%" y="-37.1%" filterUnits="objectBoundingBox">
            <feOffset dy="2" in="SourceAlpha" result="shadowOffsetOuter1"/>
            <feGaussianBlur in="shadowOffsetOuter1" result="shadowBlurOuter1" stdDeviation="2"/>
            <feColorMatrix in="shadowBlurOuter1" result="shadowMatrixOuter1" values="0 0 0 0 0 0 0 0 0 0 0 0 0 0 0 0 0 0 0.5 0"/>
            <feMerge>
                <feMergeNode in="shadowMatrixOuter1"/>
                <feMergeNode in="SourceGraphic"/>
            </feMerge>
        </filter>
        <filter id="prefix__c" width="170.3%" height="157.1%" x="-35.1%" y="-28.6%" filterUnits="objectBoundingBox">
            <feOffset dy="2" in="SourceAlpha" result="shadowOffsetOuter1"/>
            <feGaussianBlur in="shadowOffsetOuter1" result="shadowBlurOuter1" stdDeviation="2"/>
            <feColorMatrix in="shadowBlurOuter1" result="shadowMatrixOuter1" values="0 0 0 0 0 0 0 0 0 0 0 0 0 0 0 0 0 0 0.5 0"/>
            <feMerge>
                <feMergeNode in="shadowMatrixOuter1"/>
                <feMergeNode in="SourceGraphic"/>
            </feMerge>
        </filter>
        <filter id="prefix__d" width="165%" height="165%" x="-32.5%" y="-32.5%" filterUnits="objectBoundingBox">
            <feOffset dy="2" in="SourceAlpha" result="shadowOffsetOuter1"/>
            <feGaussianBlur in="shadowOffsetOuter1" result="shadowBlurOuter1" stdDeviation="2"/>
            <feColorMatrix in="shadowBlurOuter1" result="shadowMatrixOuter1" values="0 0 0 0 0 0 0 0 0 0 0 0 0 0 0 0 0 0 0.5 0"/>
            <feMerge>
                <feMergeNode in="shadowMatrixOuter1"/>
                <feMergeNode in="SourceGraphic"/>
            </feMerge>
        </filter>
    </defs>
    <g fill="none" fill-rule="evenodd">
        <g stroke="#FFF">
            <path fill="#FF9000" d="M56 38L52 10 71 28 96 0 87 33 106 24 100 43 135 42 103.323 56.783 122.112 71.764 96.927 81.141 111 118 81 93 78 115 65 91 45 118 45 87 26 101 31 75 0 74 32 61 22 53 43 47 40 38z" transform="translate(.5) rotate(-138 84.95 70.086)"/>
            <path fill="#F8E71C" d="M61.38 42.775L58.195 22.357 70.222 34.831 87.437 15.007 80.511 39.324 98.857 31.786 94.19 46.599 116.432 46.267 95.687 56.729 112.875 70.66 91.478 78.112 101.333 105 78 85.508 75.667 102.661 65.556 83.949 50 105 49.479 77.263 33.141 90.929 36.287 71.327 16.412 70.769 39.815 61.972 32.111 54.322 48.444 49.644 47.523 42.701z" transform="translate(.5) rotate(-138 84.95 70.086)"/>
        </g>
        <g>
            <g filter="url(#prefix__a)" transform="translate(.5) translate(52 58.5) translate(0 .5)">
                <path fill="#9013FE" stroke="#FFF" d="M4.328 6.68L18.1 1.726c2.068-.744 4.348.32 5.107 2.382l8.864 24.066c.764 2.073-.298 4.372-2.37 5.136l-.03.01L15.9 38.274c-2.068.744-4.348-.32-5.107-2.382L1.929 11.826c-.764-2.073.298-4.372 2.37-5.136l.03-.01z"/>
                <path fill="#FFF" fill-rule="nonzero" d="M19.596 27.266c.403-.147.696-.396.878-.748.182-.352.205-.715.068-1.09L16.42 14.103l3.393-1.235c.39-.141.666-.368.83-.68.163-.313.177-.657.04-1.032-.136-.374-.368-.632-.697-.774-.33-.141-.688-.14-1.077 0l-9.596 3.493c-.375.137-.646.366-.815.688-.168.323-.186.664-.055 1.024.136.375.369.633.697.774.33.142.688.141 1.077 0l3.394-1.235 4.122 11.325c.136.375.38.64.73.799.352.157.73.163 1.133.016z"/>
            </g>
            <g filter="url(#prefix__b)" transform="translate(.5) translate(52 58.5) translate(20 .5)">
                <path fill="#9013FE" stroke="#FFF" d="M6.52.44l14.729.756c2.206.113 3.903 1.993 3.79 4.2v.008l-1.36 25.375c-.117 2.203-1.996 3.894-4.198 3.781l-14.73-.756c-2.206-.113-3.903-1.993-3.79-4.2v-.008L2.322 4.22C2.437 2.018 4.316.327 6.518.44z"/>
                <path fill="#FFF" fill-rule="nonzero" d="M11.863 23.438c1.149.06 2.215-.152 3.2-.638.986-.486 1.78-1.2 2.381-2.144.603-.943.936-2.028 1-3.253.064-1.225-.154-2.338-.654-3.339s-1.215-1.799-2.143-2.392c-.929-.594-1.967-.921-3.116-.981-1.163-.061-2.234.155-3.212.649-.978.494-1.768 1.212-2.37 2.156-.602.943-.936 2.028-1 3.253-.064 1.225.154 2.338.654 3.339s1.211 1.795 2.133 2.38c.921.586 1.964.91 3.127.97zm.133-2.526c-.643-.034-1.22-.225-1.732-.575-.512-.349-.909-.823-1.192-1.421-.284-.598-.406-1.273-.367-2.023.04-.75.232-1.412.577-1.985.344-.573.79-1.007 1.335-1.3.545-.294 1.139-.424 1.782-.39.643.033 1.22.224 1.732.574.511.349.908.827 1.191 1.433.283.606.405 1.284.366 2.034-.04.75-.231 1.408-.576 1.974-.344.565-.789.995-1.334 1.288-.545.294-1.14.424-1.782.39z"/>
            </g>
            <g filter="url(#prefix__c)" transform="translate(.5) translate(52 58.5) translate(29 1.5)">
                <path fill="#9013FE" stroke="#FFF" d="M20.347 2.635L33.055 9.71c1.926 1.071 2.622 3.499 1.557 5.428L22.1 37.803c-1.068 1.934-3.501 2.636-5.435 1.569l-.012-.007L3.945 32.29c-1.926-1.071-2.622-3.499-1.557-5.428L14.9 4.197c1.068-1.934 3.501-2.636 5.435-1.569l.012.007z"/>
                <path fill="#FFF" fill-rule="nonzero" d="M15.067 27.491c1.249.72 2.5 1.031 3.752.931 1.253-.1 2.42-.541 3.5-1.325 1.082-.783 1.998-1.826 2.749-3.127.751-1.302 1.196-2.616 1.334-3.944.138-1.328-.063-2.56-.603-3.694-.54-1.135-1.433-2.063-2.682-2.784l-4.76-2.748c-.345-.2-.701-.25-1.068-.152-.366.098-.65.32-.849.665L9.793 22.826c-.199.345-.25.701-.151 1.068.098.366.32.65.665.849l4.76 2.748zm1.124-2.405l-3.287-1.898 5.405-9.362 3.287 1.898c1.182.682 1.82 1.64 1.914 2.871.094 1.232-.25 2.525-1.031 3.88-.782 1.354-1.727 2.3-2.835 2.839-1.107.538-2.258.462-3.453-.228z"/>
            </g>
            <g filter="url(#prefix__d)" transform="translate(.5) translate(52 58.5) translate(40 13.5)">
                <path fill="#9013FE" stroke="#FFF" d="M27.376 3.277l9.821 10.531c1.507 1.616 1.418 4.147-.197 5.654L18.277 36.92c-1.616 1.506-4.147 1.418-5.653-.198L2.803 26.192c-1.507-1.616-1.418-4.147.197-5.654L21.723 3.08c1.616-1.506 4.147-1.418 5.653.198z"/>
                <path fill="#FFF" fill-rule="nonzero" d="M15.169 24.045c.784.84 1.7 1.429 2.745 1.764 1.046.334 2.114.372 3.202.111 1.089-.26 2.082-.808 2.979-1.645.897-.837 1.513-1.789 1.849-2.857.335-1.067.375-2.137.12-3.21-.255-1.071-.775-2.028-1.56-2.87-.794-.851-1.715-1.44-2.761-1.764-1.047-.324-2.114-.355-3.203-.095s-2.081.809-2.979 1.645c-.897.837-1.513 1.789-1.849 2.857-.335 1.068-.375 2.132-.12 3.193.257 1.062.782 2.018 1.577 2.87zm1.85-1.726c-.44-.47-.722-1.01-.847-1.616-.125-.607-.082-1.223.13-1.85.212-.628.592-1.198 1.142-1.71.55-.513 1.147-.855 1.793-1.028.646-.173 1.268-.175 1.864-.008.596.167 1.114.486 1.553.957.44.471.721 1.01.847 1.617.125.606.079 1.226-.138 1.858-.218.633-.601 1.205-1.15 1.717-.55.513-1.145.853-1.786 1.02-.64.168-1.259.168-1.855 0-.596-.167-1.114-.486-1.553-.957z"/>
            </g>
        </g>
    </g>
</svg>
