<svg xmlns="http://www.w3.org/2000/svg" width="44" height="44" viewBox="0 0 44 44">
    <g fill="none" fill-rule="evenodd" opacity="1">
        <path fill="#D8D8D8" fill-opacity=".01" d="M0 0H44V44H0z"/>
        <path fill="#FFF" d="M20.166 25.612V40.28h-11c-2.022 0-3.667-1.645-3.667-3.667v-11h14.667zm18.333 0v11c0 2.022-1.644 3.667-3.666 3.667h-11V25.612h14.666zM10.776 5.224c2.08-2.075 5.7-2.075 7.777-.002 3.002 3.001 3.407 8.652 3.443 9.286.002.037-.016.068-.016.105h.038c0-.037-.018-.068-.016-.105.037-.634.442-6.285 3.443-9.284 2.079-2.077 5.698-2.075 7.775-.002 2.145 2.149 2.145 5.638.002 7.78-.655.655-1.438 1.18-2.266 1.61h5.71c2.023 0 3.667 1.645 3.667 3.667v5.5h-16.5v-7.333h-3.666v7.333h-16.5v-5.5c0-2.022 1.644-3.666 3.666-3.666h5.71c-.827-.431-1.612-.956-2.267-1.61-2.143-2.145-2.143-5.634 0-7.779zm18.557 2.057c-.49 0-.951.19-1.298.537-1.081 1.082-1.712 3.023-2.05 4.642 1.62-.335 3.561-.966 4.643-2.05.715-.714.715-1.879 0-2.595-.345-.343-.805-.534-1.295-.534zm-14.668 0c-.49 0-.95.19-1.294.535-.716.715-.716 1.878 0 2.595 1.074 1.074 3.028 1.706 4.641 2.046-.337-1.62-.968-3.559-2.05-4.64-.346-.345-.806-.536-1.297-.536z"/>
    </g>
</svg>
