<svg xmlns="http://www.w3.org/2000/svg" xmlns:xlink="http://www.w3.org/1999/xlink" width="44" height="44" viewBox="0 0 44 44">
    <defs>
        <path id="prefix__a" d="M17.73.4c2.875 0 5.206 2.33 5.206 5.206v4.859c0 .958-.777 1.735-1.735 1.735-.959 0-1.736-.777-1.736-1.735v-4.86c0-.958-.776-1.734-1.735-1.734H6.017c-.958 0-1.735.776-1.735 1.735v26.03c0 .958.777 1.734 1.735 1.734H17.73c.959 0 1.735-.776 1.735-1.735v-4.794c0-.958.777-1.735 1.736-1.735.958 0 1.735.777 1.735 1.735v4.794c0 2.875-2.33 5.206-5.206 5.206H6.017c-2.875 0-5.206-2.33-5.206-5.206V5.605C.811 2.732 3.141.4 6.017.4zm9.731 7.809c.678-.678 1.778-.678 2.456 0l9.11 9.11h-.017c.373.33.587.803.587 1.301 0 .499-.214.973-.587 1.302l-9.11 9.11c-.423.497-1.088.715-1.722.565-.635-.15-1.131-.644-1.286-1.277-.155-.633.058-1.3.552-1.726l6.243-6.238H14.29c-.959 0-1.736-.777-1.736-1.736 0-.958.777-1.735 1.736-1.735h19.396l-6.226-6.22c-.678-.679-.678-1.778 0-2.456z"/>
    </defs>
    <g fill="none" fill-rule="evenodd" opacity="1" transform="translate(1 4)">
        <mask id="prefix__b" fill="#fff">
            <use xlink:href="#prefix__a"/>
        </mask>
        <!-- <use fill="#000" fill-rule="nonzero" transform="matrix(-1 0 0 1 40.408 0)" xlink:href="#prefix__a"/> -->
        <g fill="#FFF" mask="url(#prefix__b)">
            <path d="M0 0H44V44H0z" transform="translate(-1 -4)"/>
        </g>
    </g>
</svg>