<svg xmlns="http://www.w3.org/2000/svg" width="182" height="182" viewBox="0 0 182 182">
    <g fill="none" fill-rule="evenodd" opacity=".4">
        <path d="M0 0L128 0 128 128 0 128z" transform="rotate(-45 110.092 44.908)"/>
        <path fill="#B44DFF" fill-rule="nonzero" d="M63.947 10.667c29.493 0 53.386 23.893 53.386 53.333 0 29.44-23.893 53.333-53.386 53.333-29.44 0-53.28-23.893-53.28-53.333 0-29.44 23.84-53.333 53.28-53.333zM64 21.333c-23.573 0-42.667 19.094-42.667 42.667S40.427 106.667 64 106.667 106.667 87.573 106.667 64 87.573 21.333 64 21.333zM51.59 44.055l.181.174L64 56.458l12.229-12.23c2.083-2.082 5.46-2.082 7.542 0 2.083 2.084 2.083 5.46 0 7.543L71.541 64l12.23 12.229c2.024 2.023 2.081 5.268.174 7.36l-.174.182c-2.023 2.024-5.268 2.081-7.36.174l-.182-.174-12.23-12.23-12.228 12.23c-2.083 2.083-5.46 2.083-7.542 0-2.083-2.083-2.083-5.46 0-7.542l12.229-12.23-12.23-12.228c-2.023-2.023-2.08-5.268-.173-7.36l.174-.182c2.023-2.024 5.268-2.081 7.36-.174z" transform="rotate(-45 110.092 44.908)"/>
    </g>
</svg>
